<svg xmlns="http://www.w3.org/2000/svg" width="106.45" height="106.45" viewBox="0 0 106.45 106.45">
  <path id="iconfinder_soccer-ball-o_1608408" d="M36.176,48.473,53.225,36.117,70.274,48.473,63.8,68.432H42.711ZM53.225,0A52.03,52.03,0,0,1,73.9,4.218a52.3,52.3,0,0,1,28.335,28.335,52.77,52.77,0,0,1,0,41.344A52.3,52.3,0,0,1,73.9,102.232a52.77,52.77,0,0,1-41.344,0A52.3,52.3,0,0,1,4.218,73.9a52.77,52.77,0,0,1,0-41.344A52.3,52.3,0,0,1,32.553,4.218,52.03,52.03,0,0,1,53.225,0ZM90,80.194a44.483,44.483,0,0,0,8.851-26.969v-.178l-6.059,5.287L78.531,45.027,82.273,25.84l7.96.713A44.7,44.7,0,0,0,67.125,9.8l3.148,7.366L53.225,26.612,36.176,17.167,39.325,9.8A44.7,44.7,0,0,0,16.217,26.553l8.019-.713,3.683,19.187L13.663,58.334,7.6,53.047v.178a44.483,44.483,0,0,0,8.851,26.969l1.782-7.841L37.6,74.729l8.257,17.7-6.891,4.1a45.025,45.025,0,0,0,28.513,0l-6.891-4.1,8.257-17.7,19.365-2.376Z"/>
</svg>
