<svg xmlns="http://www.w3.org/2000/svg" width="92.759" height="116.328" viewBox="0 0 92.759 116.328">
  <g id="iconfinder_icon-24-one-finger-tap_315342" transform="translate(144 80)">
    <g id="icon-24-one-finger-tap" transform="translate(-144 -80)">
      <path id="one-finger-tap" d="M53.635,31.4a18.051,18.051,0,1,0-28.079,0V20.016a14.04,14.04,0,0,1,28.079,0V31.4Zm10.023,82.919c16.618,0,30.09-14.381,30.09-30.085h0V60.171a6.017,6.017,0,1,0-12.034,0v2H77.7v-10a6.017,6.017,0,1,0-12.034,0v5.991H61.657v-10a6.017,6.017,0,1,0-12.034,0V62.169H45.612v-42.1a6.017,6.017,0,1,0-12.034,0V65.378C25.321,56.552,14.451,46.843,10,51.322c-4.361,4.385,6.877,16.466,22.569,42.87,7.07,11.9,16.017,20.122,31.093,20.124Zm34.1-30.085a34.1,34.1,0,0,1-34.1,34.1c-12.487,0-25.665-5.826-34.735-22.35C15.838,72.127-.9,56.486,7.068,48.515c5.7-5.7,14.656-.231,22.5,7.1h0V20.085a10.028,10.028,0,1,1,20.056,0V40.1A10.047,10.047,0,0,1,65.05,44.632a10.02,10.02,0,0,1,16.664,7.5v.054a10.041,10.041,0,0,1,16.045,8.035v24.01Z" transform="translate(-5 -2)" fill-rule="evenodd"/>
    </g>
  </g>
</svg>
